<svg xmlns="http://www.w3.org/2000/svg" version="1.1" width="32" height="32">
	<rect x="2" y="2" width="28" height="2" fill="#666" />
	<rect x="2" y="28" width="28" height="2" fill="#666" />
	<rect x="2" y="4" width="2" height="24" fill="#666" />
	<rect x="28" y="4" width="2" height="24" fill="#666" />

	<rect x="4" y="4" width="24" height="6" fill="#b74933" />
	<rect x="4" y="22" width="24" height="6" fill="#b74933" />
	<rect x="4" y="10" width="6" height="12" fill="#b74933" />
	<rect x="22" y="10" width="6" height="12" fill="#b74933" />

	<polygon points="4 4 12 4 4 12" fill="#aaa" />
	<polygon points="28 4 20 4 28 12" fill="#aaa" />
	<polygon points="4 28 4 20 12 28" fill="#aaa" />	
	<polygon points="28 28 28 20 20 28" fill="#aaa" />

	<polygon points="10 4 12 4 4 12 4 10" fill="#b7b033" />
	<polygon points="10 28 12 28 4 20 4 22" fill="#b7b033" />
	<polygon points="28 10 28 12 20 4 22 4" fill="#b7b033" />
	<polygon points="28 22 28 20 20 28 22 28" fill="#b7b033" />
</svg>
